<?xml version="1.0" encoding="UTF-8" standalone="no"?><!DOCTYPE svg PUBLIC "-//W3C//DTD SVG 1.1//EN" "http://www.w3.org/Graphics/SVG/1.1/DTD/svg11.dtd"><svg width="100%" height="100%" viewBox="0 0 42 17" version="1.1" xmlns="http://www.w3.org/2000/svg" xmlns:xlink="http://www.w3.org/1999/xlink" xml:space="preserve" xmlns:serif="http://www.serif.com/" style="fill-rule:evenodd;clip-rule:evenodd;stroke-linejoin:round;stroke-miterlimit:1.41421;"><g><g><path d="M3.59,3.188c0.383,0 0.722,0.011 1.016,0.032c0.293,0.022 0.536,0.07 0.728,0.147c0.191,0.077 0.336,0.183 0.434,0.32c0.098,0.136 0.147,0.319 0.147,0.549c0,0.119 -0.03,0.26 -0.089,0.421c-0.06,0.162 -0.16,0.322 -0.301,0.48c-0.14,0.157 -0.325,0.306 -0.555,0.447c-0.23,0.14 -0.511,0.249 -0.844,0.325c-0.017,0 -0.025,0.013 -0.025,0.039c0,0.017 0.008,0.025 0.025,0.025c0.12,0.026 0.252,0.054 0.396,0.083c0.145,0.03 0.282,0.081 0.409,0.154c0.128,0.072 0.237,0.166 0.326,0.281c0.089,0.115 0.134,0.27 0.134,0.466c0,0.238 -0.064,0.479 -0.191,0.722c-0.128,0.243 -0.309,0.462 -0.543,0.658c-0.235,0.196 -0.52,0.355 -0.856,0.479c-0.337,0.123 -0.718,0.185 -1.144,0.185c-0.247,0 -0.511,-0.023 -0.792,-0.07c-0.281,-0.047 -0.541,-0.13 -0.779,-0.249c-0.06,-0.034 -0.115,-0.062 -0.166,-0.083c-0.051,-0.022 -0.094,-0.032 -0.128,-0.032c-0.068,0 -0.175,0.034 -0.319,0.102c-0.145,0.068 -0.277,0.149 -0.396,0.243l-0.077,-0.064c0.111,-0.119 0.185,-0.207 0.224,-0.262c0.038,-0.055 0.07,-0.104 0.095,-0.147c0.137,-0.23 0.277,-0.471 0.422,-0.722c0.145,-0.251 0.283,-0.498 0.415,-0.741c0.132,-0.243 0.26,-0.477 0.383,-0.702c0.124,-0.226 0.237,-0.428 0.339,-0.607c0.077,-0.154 0.168,-0.326 0.275,-0.518c0.106,-0.191 0.213,-0.389 0.319,-0.594c0.106,-0.204 0.209,-0.406 0.307,-0.607c0.098,-0.2 0.185,-0.381 0.262,-0.543c0.008,-0.017 0.012,-0.038 0.012,-0.063c0,-0.026 -0.025,-0.039 -0.076,-0.039c-0.12,0 -0.252,0.009 -0.396,0.026c-0.145,0.017 -0.286,0.036 -0.422,0.057c-0.136,0.022 -0.264,0.041 -0.383,0.058c-0.119,0.017 -0.213,0.025 -0.281,0.025c-0.137,0 -0.205,-0.042 -0.205,-0.127c0,-0.094 0.026,-0.166 0.077,-0.218c0.017,0 0.03,0.013 0.038,0.039c0.017,0.025 0.054,0.042 0.109,0.051c0.055,0.008 0.189,0.013 0.402,0.013c0.273,0 0.53,-0.007 0.773,-0.02c0.243,-0.012 0.543,-0.019 0.901,-0.019Zm1.712,0.933c0,-0.162 -0.034,-0.296 -0.102,-0.403c-0.069,-0.106 -0.158,-0.189 -0.269,-0.249c-0.11,-0.059 -0.234,-0.1 -0.37,-0.121c-0.136,-0.021 -0.273,-0.032 -0.409,-0.032c-0.094,0 -0.181,0.011 -0.262,0.032c-0.081,0.021 -0.151,0.07 -0.211,0.147c-0.093,0.119 -0.189,0.262 -0.287,0.428c-0.098,0.166 -0.19,0.321 -0.275,0.466c-0.281,0.503 -0.583,1.065 -0.907,1.687c-0.324,0.621 -0.647,1.251 -0.971,1.89c-0.042,0.085 -0.068,0.162 -0.076,0.23c0,0.051 0.021,0.115 0.063,0.192c0.043,0.077 0.113,0.151 0.211,0.223c0.098,0.073 0.224,0.135 0.377,0.186c0.153,0.051 0.345,0.076 0.575,0.076c0.29,-0.008 0.577,-0.066 0.862,-0.172c0.286,-0.107 0.543,-0.251 0.773,-0.435c0.23,-0.183 0.415,-0.4 0.556,-0.651c0.14,-0.251 0.211,-0.522 0.211,-0.811c0,-0.247 -0.094,-0.437 -0.281,-0.569c-0.188,-0.132 -0.452,-0.206 -0.792,-0.223c-0.12,0 -0.252,0.015 -0.396,0.044c-0.145,0.03 -0.273,0.045 -0.384,0.045c-0.025,-0.008 -0.044,-0.019 -0.057,-0.032c-0.013,-0.013 -0.019,-0.045 -0.019,-0.096c0,-0.042 0.012,-0.078 0.038,-0.108c0.026,-0.03 0.06,-0.045 0.102,-0.045c0.094,0 0.183,0.013 0.268,0.038c0.086,0.026 0.175,0.039 0.269,0.039c0.076,0 0.164,-0.007 0.262,-0.019c0.098,-0.013 0.181,-0.032 0.249,-0.058c0.153,-0.068 0.304,-0.155 0.453,-0.262c0.149,-0.106 0.283,-0.232 0.403,-0.377c0.119,-0.145 0.215,-0.306 0.287,-0.485c0.073,-0.179 0.109,-0.371 0.109,-0.575Z" style="fill:#00c1ff;fill-rule:nonzero;"/><path d="M12.06,0.544c0,0.119 -0.047,0.294 -0.141,0.524c-0.093,0.23 -0.227,0.496 -0.402,0.798c-0.175,0.302 -0.388,0.626 -0.639,0.971c-0.251,0.345 -0.536,0.688 -0.856,1.028c-0.319,0.341 -0.67,0.667 -1.054,0.978c-0.383,0.311 -0.792,0.585 -1.226,0.824c-0.077,0.136 -0.183,0.319 -0.32,0.549c-0.136,0.23 -0.27,0.473 -0.402,0.728c-0.132,0.256 -0.247,0.507 -0.345,0.754c-0.098,0.247 -0.147,0.456 -0.147,0.626c0,0.273 0.124,0.409 0.371,0.409c0.213,0 0.434,-0.06 0.664,-0.179c0.23,-0.119 0.449,-0.264 0.658,-0.434c0.209,-0.171 0.404,-0.352 0.588,-0.543c0.183,-0.192 0.338,-0.364 0.466,-0.518c0.06,-0.059 0.094,-0.074 0.102,-0.044c0.009,0.029 -0.004,0.061 -0.038,0.095c-0.154,0.188 -0.335,0.388 -0.543,0.601c-0.209,0.213 -0.43,0.409 -0.665,0.587c-0.234,0.179 -0.479,0.328 -0.734,0.448c-0.256,0.119 -0.511,0.178 -0.767,0.178c-0.221,0 -0.381,-0.053 -0.479,-0.159c-0.098,-0.107 -0.147,-0.237 -0.147,-0.39c0,-0.153 0.066,-0.373 0.198,-0.658c0.132,-0.285 0.288,-0.585 0.467,-0.901c0.179,-0.315 0.357,-0.613 0.536,-0.894c0.179,-0.281 0.311,-0.494 0.396,-0.639c0.145,-0.247 0.296,-0.504 0.454,-0.772c0.157,-0.269 0.313,-0.531 0.466,-0.786c0.153,-0.256 0.3,-0.501 0.441,-0.735c0.14,-0.234 0.27,-0.44 0.39,-0.619c0.144,-0.222 0.293,-0.43 0.447,-0.626c0.153,-0.196 0.349,-0.392 0.587,-0.588c0.324,-0.273 0.622,-0.481 0.895,-0.626c0.272,-0.145 0.455,-0.217 0.549,-0.217c0.068,0 0.123,0.019 0.166,0.057c0.043,0.039 0.064,0.096 0.064,0.173Zm-0.575,0.332c0,-0.136 -0.055,-0.204 -0.166,-0.204c-0.043,0 -0.089,0.012 -0.141,0.038c-0.051,0.025 -0.117,0.079 -0.198,0.16c-0.081,0.08 -0.178,0.193 -0.293,0.338c-0.115,0.145 -0.262,0.332 -0.441,0.562c-0.068,0.094 -0.164,0.23 -0.288,0.409c-0.123,0.179 -0.281,0.415 -0.472,0.709c-0.192,0.294 -0.422,0.656 -0.69,1.086c-0.268,0.43 -0.586,0.939 -0.952,1.527c0.511,-0.29 0.99,-0.641 1.437,-1.054c0.447,-0.413 0.833,-0.837 1.156,-1.271c0.324,-0.435 0.58,-0.856 0.767,-1.265c0.187,-0.409 0.281,-0.754 0.281,-1.035Z" style="fill:#00c1ff;fill-rule:nonzero;"/><path d="M12.507,7.34c-0.145,0.205 -0.315,0.42 -0.511,0.645c-0.196,0.226 -0.4,0.433 -0.613,0.62c-0.213,0.187 -0.43,0.343 -0.652,0.466c-0.221,0.124 -0.43,0.186 -0.626,0.186c-0.145,0 -0.257,-0.039 -0.338,-0.115c-0.081,-0.077 -0.122,-0.196 -0.122,-0.358c0,-0.077 0.011,-0.164 0.032,-0.262c0.022,-0.098 0.058,-0.207 0.109,-0.326c-0.051,0.06 -0.109,0.13 -0.173,0.211c-0.063,0.081 -0.136,0.158 -0.217,0.23c-0.081,0.072 -0.17,0.132 -0.268,0.179c-0.098,0.047 -0.207,0.07 -0.326,0.07c-0.093,0 -0.17,-0.028 -0.23,-0.083c-0.059,-0.055 -0.089,-0.143 -0.089,-0.262c0,-0.068 0.015,-0.153 0.045,-0.255c0.029,-0.103 0.085,-0.241 0.166,-0.416c0.081,-0.174 0.191,-0.391 0.332,-0.651c0.14,-0.26 0.321,-0.581 0.543,-0.965c0.042,-0.085 0.081,-0.127 0.115,-0.127c0.059,0 0.121,0.036 0.185,0.108c0.064,0.073 0.096,0.122 0.096,0.147c0,0.026 -0.026,0.077 -0.077,0.153c-0.136,0.205 -0.264,0.409 -0.383,0.614c-0.119,0.204 -0.224,0.396 -0.313,0.575c-0.09,0.178 -0.162,0.338 -0.217,0.479c-0.056,0.14 -0.083,0.249 -0.083,0.325c0,0.128 0.046,0.192 0.14,0.192c0.085,0 0.202,-0.066 0.351,-0.198c0.15,-0.132 0.326,-0.356 0.531,-0.671c0.076,-0.136 0.155,-0.279 0.236,-0.428c0.081,-0.149 0.16,-0.291 0.236,-0.428c0.077,-0.136 0.149,-0.262 0.218,-0.377c0.068,-0.115 0.119,-0.202 0.153,-0.261c0.042,-0.06 0.076,-0.09 0.102,-0.09c0.034,0 0.072,0.036 0.115,0.109c0.043,0.072 0.064,0.159 0.064,0.262c0,0.068 -0.017,0.132 -0.051,0.191c-0.102,0.154 -0.211,0.305 -0.326,0.454c-0.115,0.149 -0.221,0.304 -0.319,0.466c-0.098,0.162 -0.181,0.332 -0.249,0.511c-0.069,0.179 -0.103,0.375 -0.103,0.588c0,0.187 0.09,0.281 0.269,0.281c0.119,0 0.261,-0.045 0.428,-0.134c0.166,-0.09 0.347,-0.215 0.543,-0.377c0.195,-0.162 0.398,-0.358 0.606,-0.588c0.209,-0.23 0.407,-0.481 0.594,-0.754c0.051,-0.017 0.077,0.005 0.077,0.064Z" style="fill:#00c1ff;fill-rule:nonzero;"/><path d="M15.1,7.353c-0.144,0.179 -0.317,0.364 -0.517,0.556c-0.2,0.191 -0.417,0.366 -0.652,0.524c-0.234,0.157 -0.476,0.285 -0.728,0.383c-0.251,0.098 -0.5,0.147 -0.747,0.147c-0.4,0 -0.601,-0.179 -0.601,-0.537c0,-0.238 0.062,-0.496 0.186,-0.773c0.123,-0.277 0.283,-0.532 0.479,-0.766c0.196,-0.234 0.411,-0.43 0.645,-0.588c0.234,-0.157 0.458,-0.236 0.671,-0.236c0.119,0 0.202,0.021 0.249,0.064c0.047,0.042 0.07,0.098 0.07,0.166c0,0.102 -0.032,0.213 -0.096,0.332c-0.064,0.119 -0.159,0.232 -0.287,0.338c-0.128,0.107 -0.29,0.196 -0.486,0.269c-0.196,0.072 -0.43,0.108 -0.702,0.108c-0.043,0.077 -0.09,0.198 -0.141,0.364c-0.051,0.166 -0.076,0.335 -0.076,0.505c0,0.349 0.157,0.524 0.472,0.524c0.196,0 0.398,-0.047 0.607,-0.141c0.209,-0.093 0.411,-0.211 0.607,-0.351c0.196,-0.141 0.377,-0.294 0.543,-0.46c0.166,-0.166 0.304,-0.321 0.415,-0.466c0.017,-0.017 0.036,-0.022 0.057,-0.013c0.022,0.008 0.032,0.025 0.032,0.051Zm-1.341,-0.996c0,-0.111 -0.055,-0.167 -0.166,-0.167c-0.085,0 -0.173,0.032 -0.262,0.096c-0.089,0.064 -0.177,0.147 -0.262,0.249c-0.085,0.103 -0.166,0.213 -0.243,0.333c-0.076,0.119 -0.14,0.234 -0.191,0.345c0.017,0.008 0.047,0.014 0.089,0.019c0.043,0.004 0.077,0.006 0.102,0.006c0.247,0 0.465,-0.087 0.652,-0.262c0.187,-0.174 0.281,-0.381 0.281,-0.619Z" style="fill:#00c1ff;fill-rule:nonzero;"/></g><g><path d="M20.92,3.835c-0.44,0 -0.829,0.02 -1.166,0.061c-0.338,0.04 -0.636,0.126 -0.892,0.256c-0.256,0.13 -0.486,0.32 -0.69,0.568c-0.203,0.248 -0.391,0.58 -0.562,0.995c-0.016,0.033 -0.034,0.043 -0.055,0.031c-0.02,-0.013 -0.038,-0.043 -0.055,-0.092c0.074,-0.22 0.159,-0.433 0.257,-0.641c0.098,-0.208 0.21,-0.399 0.336,-0.574c0.126,-0.175 0.266,-0.324 0.421,-0.446c0.155,-0.122 0.326,-0.199 0.513,-0.232c0.203,-0.04 0.431,-0.059 0.684,-0.055c0.252,0.004 0.505,0.006 0.757,0.006c0.236,0 0.472,0.002 0.708,0.007c0.236,0.004 0.472,0.006 0.708,0.006l0.526,0c0.651,-0.009 1.172,-0.118 1.563,-0.33c0.122,-0.065 0.244,-0.163 0.366,-0.293c0.122,-0.13 0.183,-0.273 0.183,-0.428c0,-0.04 -0.004,-0.069 -0.012,-0.085c-0.008,-0.008 -0.012,-0.02 -0.012,-0.037c0,-0.032 0.012,-0.049 0.036,-0.049c0.009,0 0.021,0.009 0.037,0.025c0.098,0.106 0.171,0.212 0.22,0.317c0.024,0.033 0.037,0.082 0.037,0.147c0,0.049 -0.017,0.106 -0.049,0.171c-0.139,0.228 -0.344,0.391 -0.617,0.488c-0.273,0.098 -0.604,0.155 -0.995,0.171c-0.139,0.008 -0.285,0.01 -0.44,0.006c-0.155,-0.004 -0.293,-0.002 -0.415,0.007c-0.114,0 -0.2,0.04 -0.257,0.122c-0.455,0.692 -0.877,1.367 -1.263,2.027c-0.387,0.659 -0.739,1.278 -1.057,1.856c-0.073,0.138 -0.132,0.267 -0.177,0.385c-0.045,0.118 -0.071,0.226 -0.079,0.323c0,0.065 0.008,0.129 0.024,0.19c0.016,0.061 0.053,0.114 0.11,0.158c0.057,0.045 0.141,0.082 0.25,0.11c0.11,0.029 0.255,0.043 0.434,0.043c0.041,0 0.089,0 0.146,0c0.057,0 0.106,-0.004 0.147,-0.012c0.024,0.032 0.012,0.065 -0.037,0.097c-0.138,0.017 -0.293,0.027 -0.464,0.031c-0.171,0.004 -0.329,0.006 -0.476,0.006c-0.122,0 -0.238,-0.002 -0.348,-0.006c-0.11,-0.004 -0.208,-0.02 -0.293,-0.049c-0.086,-0.028 -0.155,-0.071 -0.208,-0.128c-0.053,-0.057 -0.079,-0.138 -0.079,-0.244c0,-0.065 0.016,-0.139 0.049,-0.22c0.032,-0.082 0.077,-0.167 0.134,-0.257c0.22,-0.358 0.442,-0.724 0.666,-1.099c0.224,-0.374 0.443,-0.747 0.659,-1.117c0.216,-0.37 0.426,-0.733 0.629,-1.087c0.204,-0.354 0.391,-0.694 0.562,-1.02c0.041,-0.073 0.02,-0.109 -0.061,-0.109l-0.403,0Z" style="fill:#fff;fill-rule:nonzero;"/><path d="M24.632,6.607c-0.049,0.057 -0.1,0.126 -0.153,0.207c-0.052,0.082 -0.087,0.143 -0.103,0.183c-0.008,0.025 -0.025,0.037 -0.049,0.037c-0.008,0 -0.021,-0.012 -0.037,-0.037c-0.016,-0.024 -0.038,-0.05 -0.067,-0.079c-0.028,-0.028 -0.067,-0.055 -0.116,-0.079c-0.049,-0.025 -0.118,-0.037 -0.208,-0.037c-0.105,0 -0.223,0.037 -0.354,0.11c-0.13,0.073 -0.244,0.155 -0.342,0.244c-0.154,0.13 -0.291,0.273 -0.409,0.428c-0.118,0.154 -0.23,0.315 -0.336,0.482c-0.105,0.167 -0.207,0.338 -0.305,0.513c-0.098,0.175 -0.203,0.352 -0.317,0.531c-0.009,0.024 -0.033,0.037 -0.074,0.037c-0.016,0 -0.051,-0.025 -0.103,-0.074c-0.053,-0.048 -0.08,-0.085 -0.08,-0.11c0,-0.048 0.029,-0.122 0.086,-0.219c0.13,-0.228 0.262,-0.458 0.397,-0.69c0.134,-0.232 0.26,-0.45 0.378,-0.654c0.118,-0.203 0.222,-0.38 0.312,-0.531c0.089,-0.15 0.15,-0.262 0.183,-0.336c0.04,-0.073 0.069,-0.11 0.085,-0.11c0.016,0 0.057,0.021 0.122,0.061c0.065,0.041 0.098,0.098 0.098,0.171c0,0.025 -0.014,0.066 -0.043,0.123c-0.028,0.057 -0.061,0.116 -0.097,0.177c-0.037,0.061 -0.072,0.12 -0.104,0.177c-0.033,0.057 -0.057,0.097 -0.074,0.122c-0.024,0.041 -0.028,0.061 -0.012,0.061c0.017,0 0.037,-0.012 0.061,-0.037c0.082,-0.081 0.181,-0.171 0.3,-0.268c0.118,-0.098 0.242,-0.19 0.372,-0.275c0.13,-0.086 0.258,-0.157 0.385,-0.214c0.126,-0.057 0.238,-0.085 0.335,-0.085c0.074,0 0.137,0.018 0.19,0.055c0.053,0.036 0.079,0.075 0.079,0.116Z" style="fill:#fff;fill-rule:nonzero;"/><path d="M28.503,7.425c-0.187,0.228 -0.393,0.458 -0.616,0.69c-0.224,0.232 -0.45,0.441 -0.678,0.629c-0.228,0.187 -0.454,0.338 -0.678,0.452c-0.224,0.113 -0.429,0.17 -0.617,0.17c-0.162,0 -0.276,-0.04 -0.342,-0.122c-0.065,-0.081 -0.097,-0.183 -0.097,-0.305c0,-0.114 0.034,-0.267 0.104,-0.458c0.069,-0.191 0.173,-0.397 0.311,-0.617c-0.106,0.139 -0.228,0.285 -0.366,0.44c-0.139,0.155 -0.281,0.295 -0.428,0.421c-0.146,0.127 -0.293,0.232 -0.439,0.318c-0.147,0.085 -0.277,0.128 -0.391,0.128c-0.171,0 -0.257,-0.085 -0.257,-0.256c0,-0.188 0.074,-0.424 0.22,-0.709c0.147,-0.285 0.344,-0.559 0.592,-0.824c0.249,-0.265 0.532,-0.492 0.849,-0.684c0.318,-0.191 0.647,-0.287 0.989,-0.287c0.041,-0.081 0.078,-0.138 0.11,-0.171c0.033,-0.032 0.065,-0.057 0.098,-0.073l0.342,-0.098l0.024,0.012c-0.04,0.041 -0.079,0.092 -0.116,0.153c-0.036,0.061 -0.075,0.124 -0.116,0.189c0.041,0 0.102,0.004 0.183,0.013c0.082,0.008 0.143,0.016 0.184,0.024c0.04,0.016 0.061,0.037 0.061,0.061c0,0.025 -0.013,0.037 -0.037,0.037c-0.049,-0.017 -0.122,-0.029 -0.22,-0.037c-0.097,-0.008 -0.171,-0.012 -0.22,-0.012c-0.374,0.659 -0.649,1.182 -0.824,1.569c-0.175,0.387 -0.262,0.674 -0.262,0.861c0,0.073 0.018,0.134 0.054,0.183c0.037,0.049 0.112,0.074 0.226,0.074c0.131,0 0.285,-0.047 0.464,-0.141c0.18,-0.094 0.371,-0.224 0.574,-0.391c0.204,-0.167 0.414,-0.36 0.629,-0.58c0.216,-0.22 0.422,-0.452 0.617,-0.696c0.016,-0.024 0.033,-0.03 0.049,-0.018c0.016,0.012 0.024,0.03 0.024,0.055Zm-1.905,-0.928c-0.277,0 -0.541,0.097 -0.794,0.293c-0.252,0.195 -0.476,0.425 -0.671,0.69c-0.196,0.264 -0.352,0.527 -0.47,0.787c-0.118,0.261 -0.177,0.452 -0.177,0.574c0,0.066 0.024,0.098 0.073,0.098c0.049,0 0.124,-0.032 0.226,-0.098c0.102,-0.065 0.218,-0.152 0.348,-0.262c0.13,-0.11 0.262,-0.238 0.397,-0.385c0.134,-0.146 0.258,-0.305 0.372,-0.476c0.13,-0.196 0.257,-0.403 0.379,-0.623c0.122,-0.22 0.232,-0.415 0.329,-0.586l-0.012,-0.012Z" style="fill:#fff;fill-rule:nonzero;"/><path d="M31.617,7.522c-0.146,0.204 -0.315,0.41 -0.506,0.617c-0.192,0.208 -0.395,0.393 -0.611,0.556c-0.216,0.163 -0.436,0.297 -0.66,0.403c-0.223,0.106 -0.441,0.159 -0.653,0.159c-0.098,0 -0.187,-0.015 -0.269,-0.043c-0.081,-0.029 -0.122,-0.1 -0.122,-0.214c0,-0.114 0.041,-0.258 0.122,-0.433c0.082,-0.175 0.178,-0.361 0.287,-0.556c0.11,-0.195 0.224,-0.395 0.342,-0.598c0.118,-0.204 0.214,-0.391 0.287,-0.562c0.017,-0.041 0.019,-0.075 0.006,-0.104c-0.012,-0.028 -0.038,-0.03 -0.079,-0.006c-0.089,0.057 -0.195,0.134 -0.317,0.232c-0.123,0.098 -0.247,0.201 -0.373,0.311c-0.126,0.11 -0.248,0.222 -0.366,0.336c-0.118,0.114 -0.214,0.216 -0.287,0.305c-0.13,0.204 -0.242,0.391 -0.336,0.562c-0.094,0.171 -0.21,0.363 -0.348,0.574c-0.033,0.049 -0.057,0.073 -0.073,0.073c-0.041,0 -0.076,-0.044 -0.104,-0.134c-0.029,-0.089 -0.043,-0.146 -0.043,-0.171c0,-0.073 0.051,-0.173 0.153,-0.299c0.102,-0.126 0.213,-0.267 0.336,-0.421c0.13,-0.261 0.264,-0.536 0.403,-0.825c0.138,-0.289 0.256,-0.547 0.354,-0.775c0.024,-0.041 0.061,-0.061 0.11,-0.061c0.048,0 0.093,0.02 0.134,0.061c0.041,0.041 0.061,0.085 0.061,0.134c0,0.033 -0.059,0.145 -0.177,0.336c-0.118,0.191 -0.234,0.413 -0.348,0.666c0.155,-0.139 0.324,-0.285 0.507,-0.44c0.183,-0.155 0.358,-0.297 0.525,-0.427c0.167,-0.131 0.313,-0.239 0.439,-0.324c0.127,-0.086 0.214,-0.128 0.263,-0.128c0.033,0 0.063,0.018 0.092,0.055c0.028,0.036 0.042,0.071 0.042,0.103c0,0.033 -0.02,0.082 -0.061,0.147c-0.089,0.13 -0.199,0.297 -0.329,0.501c-0.131,0.203 -0.255,0.413 -0.373,0.629c-0.118,0.215 -0.218,0.421 -0.299,0.616c-0.081,0.196 -0.122,0.35 -0.122,0.464c0,0.098 0.02,0.165 0.061,0.202c0.041,0.037 0.106,0.055 0.195,0.055c0.139,0 0.301,-0.053 0.489,-0.159c0.187,-0.106 0.38,-0.238 0.58,-0.397c0.199,-0.159 0.389,-0.336 0.568,-0.531c0.179,-0.195 0.325,-0.383 0.439,-0.562c0.017,-0.024 0.041,-0.03 0.074,-0.018c0.032,0.012 0.028,0.043 -0.013,0.091Z" style="fill:#fff;fill-rule:nonzero;"/><path d="M32.729,6.863c-0.025,0.041 -0.045,0.045 -0.061,0.012c-0.049,-0.106 -0.151,-0.158 -0.306,-0.158c-0.114,0 -0.228,0.032 -0.342,0.097c-0.114,0.065 -0.171,0.163 -0.171,0.293c0,0.065 0.021,0.131 0.061,0.196c0.041,0.065 0.098,0.15 0.171,0.256c0.065,0.098 0.127,0.196 0.184,0.293c0.057,0.098 0.085,0.2 0.085,0.306c0,0.211 -0.049,0.384 -0.147,0.519c-0.097,0.134 -0.213,0.242 -0.348,0.323c-0.134,0.082 -0.27,0.136 -0.409,0.165c-0.138,0.028 -0.248,0.043 -0.329,0.043c-0.497,0 -0.77,-0.167 -0.819,-0.501c0.041,-0.024 0.088,-0.055 0.141,-0.092c0.053,-0.036 0.091,-0.071 0.116,-0.103c0.016,0 0.028,0.016 0.037,0.048c0.04,0.147 0.118,0.273 0.232,0.379c0.114,0.106 0.248,0.159 0.403,0.159c0.065,0 0.142,-0.006 0.232,-0.018c0.089,-0.013 0.173,-0.041 0.25,-0.086c0.077,-0.045 0.144,-0.108 0.201,-0.189c0.057,-0.082 0.086,-0.192 0.086,-0.33c0,-0.106 -0.02,-0.204 -0.061,-0.293c-0.041,-0.09 -0.086,-0.171 -0.135,-0.244c-0.048,-0.082 -0.097,-0.163 -0.146,-0.245c-0.049,-0.081 -0.073,-0.171 -0.073,-0.268c0,-0.098 0.034,-0.204 0.103,-0.318c0.07,-0.114 0.157,-0.217 0.263,-0.311c0.106,-0.094 0.222,-0.173 0.348,-0.238c0.126,-0.065 0.25,-0.098 0.373,-0.098c0.13,0 0.195,0.041 0.195,0.122c-0.025,0.041 -0.049,0.088 -0.073,0.141c-0.025,0.053 -0.045,0.099 -0.061,0.14Z" style="fill:#fff;fill-rule:nonzero;"/><path d="M40.788,0.366c0,0.033 -0.006,0.09 -0.018,0.171c-0.012,0.082 -0.024,0.171 -0.037,0.269c-0.012,0.098 -0.024,0.195 -0.036,0.293c-0.012,0.098 -0.019,0.171 -0.019,0.22c-0.016,0.016 -0.036,0.024 -0.061,0.024c-0.016,0 -0.032,-0.008 -0.048,-0.024c0.016,-0.065 0.026,-0.122 0.03,-0.171c0.004,-0.049 0.006,-0.098 0.006,-0.147c0,-0.162 -0.067,-0.289 -0.201,-0.378c-0.135,-0.09 -0.324,-0.135 -0.568,-0.135c-0.171,0 -0.348,0.029 -0.531,0.086c-0.184,0.057 -0.371,0.159 -0.562,0.305c-0.191,0.147 -0.391,0.342 -0.598,0.586c-0.208,0.245 -0.422,0.554 -0.642,0.929c-0.122,0.211 -0.272,0.484 -0.451,0.818c-0.18,0.334 -0.371,0.69 -0.574,1.068c-0.204,0.379 -0.407,0.766 -0.611,1.16c-0.203,0.395 -0.391,0.764 -0.562,1.106c0.074,0 0.196,-0.002 0.367,-0.007c0.171,-0.004 0.346,-0.006 0.525,-0.006l0.794,0c0.04,0.025 0.052,0.065 0.036,0.122c-0.032,0 -0.114,0 -0.244,0c-0.13,0 -0.285,0.002 -0.464,0.007c-0.179,0.004 -0.364,0.008 -0.556,0.012c-0.191,0.004 -0.364,0.006 -0.519,0.006c-0.268,0.521 -0.551,1.044 -0.848,1.569c-0.298,0.525 -0.595,1.032 -0.892,1.52c-0.297,0.489 -0.59,0.943 -0.879,1.362c-0.289,0.419 -0.556,0.788 -0.8,1.105c-0.611,0.782 -1.191,1.443 -1.74,1.985c-0.55,0.541 -1.073,0.981 -1.569,1.319c-0.497,0.337 -0.963,0.582 -1.399,0.732c-0.435,0.151 -0.848,0.226 -1.239,0.226c-0.114,0 -0.238,-0.012 -0.373,-0.036c-0.134,-0.025 -0.264,-0.074 -0.39,-0.147c-0.127,-0.073 -0.239,-0.177 -0.336,-0.311c-0.098,-0.135 -0.171,-0.312 -0.22,-0.532c0,-0.065 0.008,-0.093 0.024,-0.085c0.017,0.008 0.033,0.032 0.049,0.073c0.008,0.057 0.041,0.132 0.098,0.226c0.057,0.094 0.14,0.185 0.25,0.275c0.11,0.089 0.246,0.165 0.409,0.226c0.163,0.061 0.358,0.091 0.586,0.091c0.367,-0.008 0.764,-0.075 1.191,-0.201c0.428,-0.126 0.877,-0.348 1.35,-0.666c0.472,-0.317 0.966,-0.743 1.483,-1.276c0.517,-0.533 1.052,-1.207 1.606,-2.021c0.293,-0.431 0.584,-0.893 0.873,-1.386c0.289,-0.492 0.57,-0.981 0.843,-1.465c0.273,-0.485 0.529,-0.951 0.769,-1.399c0.24,-0.447 0.458,-0.838 0.654,-1.172c-0.351,0.025 -0.627,0.049 -0.831,0.073c-0.203,0.025 -0.366,0.063 -0.488,0.116c-0.122,0.053 -0.218,0.131 -0.287,0.232c-0.07,0.102 -0.149,0.243 -0.238,0.422l-0.037,-0.013c0.114,-0.268 0.228,-0.47 0.342,-0.604c0.114,-0.134 0.22,-0.218 0.317,-0.25c0.065,-0.017 0.153,-0.033 0.263,-0.049c0.11,-0.016 0.228,-0.029 0.354,-0.037c0.126,-0.008 0.25,-0.016 0.373,-0.024c0.122,-0.008 0.227,-0.012 0.317,-0.012c0.407,-0.749 0.8,-1.443 1.178,-2.083c0.379,-0.639 0.772,-1.263 1.179,-1.874c0.22,-0.334 0.456,-0.657 0.708,-0.971c0.253,-0.313 0.509,-0.59 0.77,-0.83c0.26,-0.241 0.519,-0.432 0.775,-0.574c0.256,-0.143 0.503,-0.214 0.739,-0.214c0.163,0 0.305,0.037 0.427,0.11c0.122,0.073 0.183,0.159 0.183,0.256Z" style="fill:#fff;fill-rule:nonzero;"/><path d="M38.883,7.645c-0.138,0.171 -0.303,0.348 -0.494,0.531c-0.192,0.183 -0.399,0.35 -0.623,0.501c-0.224,0.15 -0.456,0.272 -0.696,0.366c-0.24,0.093 -0.478,0.14 -0.714,0.14c-0.383,0 -0.574,-0.171 -0.574,-0.513c0,-0.228 0.059,-0.474 0.177,-0.738c0.118,-0.265 0.27,-0.509 0.458,-0.733c0.187,-0.224 0.392,-0.411 0.616,-0.562c0.224,-0.15 0.438,-0.226 0.641,-0.226c0.114,0 0.194,0.021 0.239,0.061c0.044,0.041 0.067,0.094 0.067,0.159c0,0.098 -0.031,0.204 -0.092,0.318c-0.061,0.114 -0.153,0.221 -0.275,0.323c-0.122,0.102 -0.276,0.187 -0.464,0.257c-0.187,0.069 -0.411,0.103 -0.671,0.103c-0.041,0.074 -0.086,0.19 -0.135,0.348c-0.049,0.159 -0.073,0.32 -0.073,0.483c0,0.334 0.151,0.5 0.452,0.5c0.187,0 0.38,-0.044 0.58,-0.134c0.199,-0.089 0.393,-0.201 0.58,-0.336c0.187,-0.134 0.36,-0.281 0.519,-0.439c0.159,-0.159 0.291,-0.308 0.397,-0.446c0.016,-0.016 0.034,-0.02 0.055,-0.012c0.02,0.008 0.03,0.024 0.03,0.049Zm-1.282,-0.953c0,-0.106 -0.053,-0.159 -0.159,-0.159c-0.081,0 -0.164,0.031 -0.25,0.092c-0.085,0.061 -0.169,0.14 -0.25,0.238c-0.082,0.098 -0.159,0.204 -0.232,0.318c-0.074,0.114 -0.135,0.223 -0.184,0.329c0.017,0.008 0.045,0.015 0.086,0.019c0.041,0.004 0.073,0.006 0.098,0.006c0.236,0 0.443,-0.084 0.622,-0.251c0.18,-0.167 0.269,-0.364 0.269,-0.592Z" style="fill:#fff;fill-rule:nonzero;"/><path d="M41.02,6.607c-0.048,0.057 -0.099,0.126 -0.152,0.207c-0.053,0.082 -0.088,0.143 -0.104,0.183c-0.008,0.025 -0.024,0.037 -0.049,0.037c-0.008,0 -0.02,-0.012 -0.037,-0.037c-0.016,-0.024 -0.038,-0.05 -0.067,-0.079c-0.028,-0.028 -0.067,-0.055 -0.116,-0.079c-0.049,-0.025 -0.118,-0.037 -0.207,-0.037c-0.106,0 -0.224,0.037 -0.354,0.11c-0.131,0.073 -0.245,0.155 -0.342,0.244c-0.155,0.13 -0.291,0.273 -0.409,0.428c-0.118,0.154 -0.23,0.315 -0.336,0.482c-0.106,0.167 -0.208,0.338 -0.306,0.513c-0.097,0.175 -0.203,0.352 -0.317,0.531c-0.008,0.024 -0.033,0.037 -0.073,0.037c-0.017,0 -0.051,-0.025 -0.104,-0.074c-0.053,-0.048 -0.08,-0.085 -0.08,-0.11c0,-0.048 0.029,-0.122 0.086,-0.219c0.13,-0.228 0.263,-0.458 0.397,-0.69c0.134,-0.232 0.26,-0.45 0.378,-0.654c0.118,-0.203 0.222,-0.38 0.312,-0.531c0.089,-0.15 0.15,-0.262 0.183,-0.336c0.041,-0.073 0.069,-0.11 0.085,-0.11c0.017,0 0.057,0.021 0.123,0.061c0.065,0.041 0.097,0.098 0.097,0.171c0,0.025 -0.014,0.066 -0.042,0.123c-0.029,0.057 -0.062,0.116 -0.098,0.177c-0.037,0.061 -0.071,0.12 -0.104,0.177c-0.033,0.057 -0.057,0.097 -0.073,0.122c-0.025,0.041 -0.029,0.061 -0.012,0.061c0.016,0 0.036,-0.012 0.061,-0.037c0.081,-0.081 0.181,-0.171 0.299,-0.268c0.118,-0.098 0.242,-0.19 0.372,-0.275c0.131,-0.086 0.259,-0.157 0.385,-0.214c0.126,-0.057 0.238,-0.085 0.336,-0.085c0.073,0 0.136,0.018 0.189,0.055c0.053,0.036 0.079,0.075 0.079,0.116Z" style="fill:#fff;fill-rule:nonzero;"/></g></g></svg>